# File created by Blade
# Date/Time:  Tue Sep 30 19:31:19 2014
#---------------------------------------------------------
:version 1.10
:name HOM
:units
  mass 1.0
  length 1.000000
  angle deg
:documentation
     Acclaim Skeleton File
:root
   axis xyz
   order TX TY TZ RX RY RZ
   position 0.000000 0.000000 0.000000
   orientation 0 0 0
:bonedata
   begin
      id 1
      name Spine_dum
      direction 0.000000 1.000000 0.000000
      length 3.241213
      axis 0.0 0.0 0.0 xyz
   end
   begin
      id 2
      name LeftUpLeg_dum
      direction 1.000000 0.000000 0.000000
      length 3.434019
      axis 0.0 0.0 0.0 xyz
   end
   begin
      id 3
      name RightUpLeg_dum
      direction -1.000000 0.000000 0.000000
      length 3.434019
      axis 0.0 0.0 0.0 xyz
   end
   begin
      id 4
      name Spine
      direction 0.000000 1.000000 0.000000
      length 0.000000
      axis 0.0 0.0 0.0 xyz
      dof rx ry rz
   end
   begin
      id 5
      name Spine_dum1
      direction 0.000000 1.000000 0.000000
      length 18.382958
      axis 0.0 0.0 0.0 xyz
   end
   begin
      id 6
      name Spine_dum2
      direction 0.000000 1.000000 0.000000
      length 12.828261
      axis 0.0 0.0 0.0 xyz
   end
   begin
      id 7
      name Spine_dum3
      direction 0.000000 1.000000 0.000000
      length 12.828261
      axis 0.0 0.0 0.0 xyz
   end
   begin
      id 8
      name Head
      direction 0.000000 1.000000 0.000000
      length 4.527550
      axis 0.0 0.0 0.0 xyz
      dof rx ry rz
   end
   begin
      id 9
      name LeftShoulder
      direction 1.000000 0.000000 0.000000
      length 7.748055
      axis 0.0 0.0 -90.0 xyz
      dof rx ry rz
   end
   begin
      id 10
      name LeftArm
      direction 1.000000 0.000000 0.000000
      length 10.635614
      axis 0.0 0.0 -90.0 xyz
      dof rx ry rz
   end
   begin
      id 11
      name LeftForeArm
      direction 1.000000 0.000000 0.000000
      length 8.346755
      axis 0.0 0.0 -90.0 xyz
      dof ry rz rx
   end
   begin
      id 12
      name LeftHand
      direction 0.000000 0.000000 0.000000
      length 0.000000
      axis 0.0 0.0 -90.0 xyz
      dof rx ry rz
   end
   begin
      id 13
      name LeftHand_dum1
      direction 0.000000 0.000000 0.000000
      length 0.000000
      axis 0.0 0.0 -90.0 xyz
   end
   begin
      id 14
      name LeftHand_dum2
      direction 1.000000 0.000000 0.000000
      length 3.937000
      axis 0.0 0.0 -90.0 xyz
   end
   begin
      id 15
      name LeftHandThumb1
      direction 0.000000 0.000000 1.000000
      length 3.937000
      axis 0.0 0.0 -90.0 xyz
      dof rx rz ry
   end
   begin
      id 16
      name RightShoulder
      direction -1.000000 0.000000 0.000000
      length 7.748055
      axis 0.0 0.0 90.0 xyz
      dof rx ry rz
   end
   begin
      id 17
      name RightArm
      direction -1.000000 0.000000 0.000000
      length 10.635614
      axis 0.0 0.0 90.0 xyz
      dof rx ry rz
   end
   begin
      id 18
      name RightForeArm
      direction -1.000000 0.000000 0.000000
      length 8.346755
      axis 0.0 0.0 90.0 xyz
      dof ry rz rx
   end
   begin
      id 19
      name RightHand
      direction 0.000000 0.000000 0.000000
      length 0.000000
      axis 0.0 0.0 90.0 xyz
      dof rx ry rz
   end
   begin
      id 20
      name RightHand_dum1
      direction 0.000000 0.000000 0.000000
      length 0.000000
      axis 0.0 0.0 90.0 xyz
   end
   begin
      id 21
      name RightHand_dum2
      direction -1.000000 0.000000 0.000000
      length 3.937000
      axis 0.0 0.0 90.0 xyz
   end
   begin
      id 22
      name RightHandThumb1
      direction 0.000000 0.000000 1.000000
      length 3.937000
      axis 0.0 0.0 90.0 xyz
      dof rx rz ry
   end
   begin
      id 23
      name LeftUpLeg
      direction 0.000000 -1.000000 0.000000
      length 15.713025
      axis 0.0 0.0 0.0 xyz
      dof rx ry rz
   end
   begin
      id 24
      name LeftLeg
      direction 0.000000 -1.000000 0.000000
      length 14.435119
      axis 0.0 0.0 0.0 xyz
      dof rx ry rz
   end
   begin
      id 25
      name LeftFoot
      direction 0.000000 -0.258819 0.965926
      length 4.938895
      axis 15.0 0.0 0.0 xyz
      dof rx ry rz
   end
   begin
      id 26
      name LeftToeBase
      direction 0.000000 0.000000 1.000000
      length 2.952750
      axis 0.0 0.0 0.0 xyz
      dof rx ry rz
   end
   begin
      id 27
      name RightUpLeg
      direction 0.000000 -1.000000 0.000000
      length 15.713025
      axis 0.0 0.0 0.0 xyz
      dof rx ry rz
   end
   begin
      id 28
      name RightLeg
      direction 0.000000 -1.000000 0.000000
      length 14.435119
      axis 0.0 0.0 0.0 xyz
      dof rx ry rz
   end
   begin
      id 29
      name RightFoot
      direction 0.000000 -0.258819 0.965926
      length 4.938895
      axis 15.0 0.0 0.0 xyz
      dof rx ry rz
   end
   begin
      id 30
      name RightToeBase
      direction 0.000000 0.000000 1.000000
      length 2.952750
      axis 0.0 0.0 0.0 xyz
      dof rx ry rz
   end
:hierarchy
   begin
      root Spine_dum LeftUpLeg_dum RightUpLeg_dum
      Spine_dum Spine
      LeftUpLeg_dum LeftUpLeg
      RightUpLeg_dum RightUpLeg
      Spine Spine_dum1 Spine_dum2 Spine_dum3
      Spine_dum1 Head
      Spine_dum2 LeftShoulder
      Spine_dum3 RightShoulder
      LeftShoulder LeftArm
      LeftArm LeftForeArm
      LeftForeArm LeftHand
      LeftHand LeftHand_dum1 LeftHand_dum2
      LeftHand_dum1 LeftHandThumb1
      RightShoulder RightArm
      RightArm RightForeArm
      RightForeArm RightHand
      RightHand RightHand_dum1 RightHand_dum2
      RightHand_dum1 RightHandThumb1
      LeftUpLeg LeftLeg
      LeftLeg LeftFoot
      LeftFoot LeftToeBase
      RightUpLeg RightLeg
      RightLeg RightFoot
      RightFoot RightToeBase
   end

# File created by Blade
# Date/Time:  Thu Sep 25 17:54:10 2014
# Frame Rate: 120.000 fps
#------------------------------------------------------
:FULLY-SPECIFIED
:DEGREES
1100
root 0.726700 32.640185 -5.433740 24.828022 1.765245 0.056616
Spine -28.339936 -12.308874 8.567873
Head 27.070017 28.503860 18.003908
LeftShoulder -21.908752 23.407202 54.322981
LeftArm 208.285239 -30.662422 -120.290244
LeftForeArm -14.071148 -0.000000 124.118509
LeftHand -11.185013 -0.000000 -14.631755
LeftHandThumb1 -26.253704 0.000000 33.147579
RightShoulder -50.992295 -58.164561 -12.909384
RightArm 104.102408 42.257945 144.351099
RightForeArm 77.141638 -0.000000 132.229703
RightHand 10.329592 -0.000000 3.670452
RightHandThumb1 -24.326973 -0.000000 -32.862282
LeftUpLeg -17.136586 3.997932 -1.065971
LeftLeg -1.919138 -0.000000 0.000000
LeftFoot -4.561129 -2.693493 -2.012746
LeftToeBase 3.478348 -0.000000 -0.000000
RightUpLeg -16.769237 -9.416875 2.937076
RightLeg -2.942479 -0.000000 0.000000
RightFoot -6.809116 -0.384235 12.691360
RightToeBase 15.681275 -0.000000 -0.000000
1101
root 0.731151 32.639983 -5.433137 24.829517 1.773384 0.058402
Spine -28.335162 -12.314976 8.594731
Head 27.079191 28.491230 18.013436
LeftShoulder -21.845373 23.400025 54.352830
LeftArm 208.324949 -30.704468 -120.298263
LeftForeArm -14.001758 -0.000000 124.103852
LeftHand -11.189224 -0.000000 -14.642460
LeftHandThumb1 -26.253704 0.000000 33.147579
RightShoulder -50.974318 -58.155494 -12.930045
RightArm 104.035652 42.206374 144.273841
RightForeArm 77.090370 -0.000000 132.226241
RightHand 10.296862 0.000000 3.641561
RightHandThumb1 -24.326973 -0.000000 -32.862282
LeftUpLeg -17.131885 4.012262 -1.079737
LeftLeg -1.930385 -0.000000 0.000000
LeftFoot -4.552004 -2.724962 -2.022112
LeftToeBase 3.472100 -0.000000 -0.000000
RightUpLeg -16.772476 -9.409963 2.925345
RightLeg -2.936207 -0.000000 0.000000
RightFoot -6.819551 -0.399464 12.708424
RightToeBase 15.691215 -0.000000 -0.000000
1102
root 0.735559 32.640086 -5.431534 24.829668 1.775395 0.061176
Spine -28.331617 -12.301555 8.607090
Head 27.101161 28.446939 18.021469
LeftShoulder -21.844514 23.414079 54.353459
LeftArm 208.314531 -30.695366 -120.264261
LeftForeArm -13.945027 -0.000000 124.121461
LeftHand -11.200218 -0.000000 -14.674699
LeftHandThumb1 -26.253704 0.000000 33.147579
RightShoulder -50.971810 -58.209869 -12.901942
RightArm 104.040967 42.175814 144.311183
RightForeArm 76.981170 -0.000000 132.193100
RightHand 10.430313 0.000000 3.904719
RightHandThumb1 -24.326973 -0.000000 -32.862282
LeftUpLeg -17.126466 4.035029 -1.097830
LeftLeg -1.936660 -0.000000 0.000000
LeftFoot -4.555868 -2.743003 -2.018520
LeftToeBase 3.504473 -0.000000 -0.000000
RightUpLeg -16.768943 -9.394954 2.905832
RightLeg -2.935840 -0.000000 0.000000
RightFoot -6.786120 -0.400574 12.819926
RightToeBase 15.551291 -0.000000 -0.000000
1103
root 0.739347 32.639881 -5.430773 24.824361 1.794019 0.059485
Spine -28.321672 -12.318350 8.641076
Head 27.121262 28.434380 18.020230
LeftShoulder -21.844827 23.450110 54.344186
LeftArm 208.334672 -30.695081 -120.271767
LeftForeArm -13.952495 -0.000000 124.119055
LeftHand -11.221191 -0.000000 -14.678835
LeftHandThumb1 -26.253704 0.000000 33.147579
RightShoulder -51.040229 -58.190349 -12.853771
RightArm 103.937834 42.106361 144.117508
RightForeArm 76.939339 -0.000000 132.176347
RightHand 10.464138 -0.000000 3.976403
RightHandThumb1 -24.326973 -0.000000 -32.862282
LeftUpLeg -17.119643 4.039286 -1.101129
LeftLeg -1.943609 -0.000000 0.000000
LeftFoot -4.551712 -2.768988 -2.008368
LeftToeBase 3.499610 -0.000000 -0.000000
RightUpLeg -16.759240 -9.384692 2.900490
RightLeg -2.937288 -0.000000 0.000000
RightFoot -6.779656 -0.433267 12.809864
RightToeBase 15.533465 -0.000000 -0.000000
1104
root 0.742484 32.640012 -5.430363 24.822356 1.806043 0.058375
Spine -28.310360 -12.314447 8.657745
Head 27.126950 28.395791 18.015476
LeftShoulder -21.843802 23.465857 54.330618
LeftArm 208.347177 -30.693992 -120.262940
LeftForeArm -13.986934 -0.000000 124.105359
LeftHand -11.282248 -0.000000 -14.715852
LeftHandThumb1 -26.253704 0.000000 33.147579
RightShoulder -51.101012 -58.376256 -12.750295
RightArm 104.067796 41.986401 144.402523
RightForeArm 77.026470 -0.000000 132.227139
RightHand 10.397214 -0.000000 4.002519
RightHandThumb1 -24.326973 -0.000000 -32.862282
LeftUpLeg -17.114637 4.042647 -1.105401
LeftLeg -1.952214 -0.000000 0.000000
LeftFoot -4.532186 -2.776275 -1.996759
LeftToeBase 3.457434 -0.000000 -0.000000
RightUpLeg -16.759685 -9.371983 2.894155
RightLeg -2.925185 -0.000000 0.000000
RightFoot -6.818711 -0.481388 12.700357
RightToeBase 15.629040 -0.000000 -0.000000
1105
root 0.744832 32.640551 -5.429694 24.810826 1.833349 0.054628
Spine -28.297455 -12.337950 8.681732
Head 27.164577 28.366061 18.039780
LeftShoulder -21.839935 23.500630 54.313753
LeftArm 208.372986 -30.715514 -120.259612
LeftForeArm -14.006994 -0.000000 124.072654
LeftHand -11.333032 -0.000000 -14.719989
LeftHandThumb1 -26.253704 0.000000 33.147579
RightShoulder -51.138867 -58.347163 -12.713633
RightArm 103.960847 41.969394 144.174874
RightForeArm 76.980504 0.000000 132.232502
RightHand 10.488373 -0.000000 3.882324
RightHandThumb1 -24.326973 -0.000000 -32.862282
LeftUpLeg -17.109115 4.048331 -1.100685
LeftLeg -1.945111 -0.000000 0.000000
LeftFoot -4.529735 -2.813734 -2.016771
LeftToeBase 3.445049 -0.000000 -0.000000
RightUpLeg -16.754498 -9.391674 2.900517
RightLeg -2.905818 -0.000000 0.000000
RightFoot -6.824190 -0.486838 12.760754
RightToeBase 15.636815 -0.000000 -0.000000
1106
root 0.748009 32.640751 -5.429186 24.800780 1.856077 0.062571
Spine -28.287166 -12.358572 8.691907
Head 27.202372 28.349400 18.065228
LeftShoulder -21.807190 23.545787 54.318517
LeftArm 208.421614 -30.731386 -120.276631
LeftForeArm -14.031009 -0.000000 124.050360
LeftHand -11.427993 -0.000000 -14.701208
LeftHandThumb1 -26.253704 0.000000 33.147579
RightShoulder -51.209210 -58.387088 -12.625001
RightArm 103.970110 41.896053 144.098304
RightForeArm 77.057375 0.000000 132.264839
RightHand 10.507840 -0.000000 3.699972
RightHandThumb1 -24.326973 -0.000000 -32.862282
LeftUpLeg -17.102916 4.041685 -1.111475
LeftLeg -1.938522 -0.000000 0.000000
LeftFoot -4.532264 -2.819401 -2.003091
LeftToeBase 3.461899 -0.000000 -0.000000
RightUpLeg -16.749682 -9.402678 2.892847
RightLeg -2.890276 -0.000000 0.000000
RightFoot -6.829892 -0.503152 12.720936
RightToeBase 15.571036 -0.000000 -0.000000
